<?xml version="1.0" encoding="UTF-8"?>
<svg version="1.1" xmlns="http://www.w3.org/2000/svg" width="26" height="38">
<path d="M0 0 C8.58 0 17.16 0 26 0 C26 12.54 26 25.08 26 38 C17.42 38 8.84 38 0 38 C0 25.46 0 12.92 0 0 Z " fill="#434242" transform="translate(0,0)"/>
<path d="M0 0 C1.95803507 -0.05389087 3.91648909 -0.09274217 5.875 -0.125 C7.51082031 -0.15980469 7.51082031 -0.15980469 9.1796875 -0.1953125 C12 0 12 0 14 2 C14.265625 4.09375 14.265625 4.09375 14.25 6.5 C14.25515625 7.2940625 14.2603125 8.088125 14.265625 8.90625 C14 11 14 11 12 13 C9.6875 13.265625 9.6875 13.265625 7 13.25 C5.6696875 13.25773437 5.6696875 13.25773437 4.3125 13.265625 C2 13 2 13 0 11 C-0.1953125 8.3984375 -0.1953125 8.3984375 -0.125 5.375 C-0.10695313 4.37210938 -0.08890625 3.36921875 -0.0703125 2.3359375 C-0.04710937 1.56507812 -0.02390625 0.79421875 0 0 Z " fill="#ED9022" transform="translate(6,4)"/>
<path d="M0 0 C0.89589844 -0.01417969 1.79179687 -0.02835938 2.71484375 -0.04296875 C5.0625 0.1875 5.0625 0.1875 7.0625 2.1875 C7.2578125 4.7890625 7.2578125 4.7890625 7.1875 7.8125 C7.16945313 8.81539062 7.15140625 9.81828125 7.1328125 10.8515625 C7.09800781 12.00785156 7.09800781 12.00785156 7.0625 13.1875 C5.08340602 13.21436553 3.10421029 13.23383375 1.125 13.25 C0.02285156 13.26160156 -1.07929688 13.27320313 -2.21484375 13.28515625 C-4.9375 13.1875 -4.9375 13.1875 -5.9375 12.1875 C-6.03601171 10.35634117 -6.06722629 8.52130067 -6.0625 6.6875 C-6.06507813 5.6871875 -6.06765625 4.686875 -6.0703125 3.65625 C-5.83611278 -0.69710958 -3.88009603 0.02783426 0 0 Z " fill="#EB4237" transform="translate(12.9375,20.8125)"/>
</svg>
